STARTFONT 2.1
FONT -HP-Mincho-Bold-R-Normal--16-116-100-100-C-80-JISX0201.1976-0
SIZE 11 100 100
FONTBOUNDINGBOX 8 16 0 -2

STARTPROPERTIES 23
FONTNAME_REGISTRY ""
FOUNDRY "HP"
FAMILY_NAME "Mincho"
WEIGHT_NAME "Bold"
SLANT "R"
SETWIDTH_NAME "Normal"
ADD_STYLE_NAME ""
PIXEL_SIZE 16
POINT_SIZE 116
RESOLUTION_X 100
RESOLUTION_Y 100
SPACING "C"
AVERAGE_WIDTH 80
CHARSET_REGISTRY "JISX0201.1976"
CHARSET_ENCODING "0"
COPYRIGHT "Copyright (c) 1994 Hewlett-Packard Company. Copyright 1994 by Bridge Inc."
_HP_ASXVERSION "@(#) ASX 3.00 $Revision: 13.9 $ minB16a"
WEIGHT 10
X_HEIGHT 14
QUAD_WIDTH 8
DEFAULT_CHAR 32
FONT_DESCENT 2
FONT_ASCENT 14
ENDPROPERTIES

CHARS 256

STARTCHAR gly0
ENCODING 0
SWIDTH 480 0
DWIDTH 8 0
BBX 8 16 0 -2
BITMAP
00
00
24
34
2C
24
24
00
09
09
09
09
06
00
00
00
ENDCHAR

STARTCHAR gly1
ENCODING 1
SWIDTH 480 0
DWIDTH 8 0
BBX 8 16 0 -2
BITMAP
00
00
1C
20
18
04
38
00
09
09
0F
09
09
00
00
00
ENDCHAR

STARTCHAR gly2
ENCODING 2
SWIDTH 480 0
DWIDTH 8 0
BBX 8 16 0 -2
BITMAP
00
00
1C
20
18
04
38
00
11
0A
04
0A
11
00
00
00
ENDCHAR

STARTCHAR gly3
ENCODING 3
SWIDTH 480 0
DWIDTH 8 0
BBX 8 16 0 -2
BITMAP
00
00
3C
20
38
20
3C
00
11
0A
04
0A
11
00
00
00
ENDCHAR

STARTCHAR gly4
ENCODING 4
SWIDTH 480 0
DWIDTH 8 0
BBX 8 16 0 -2
BITMAP
00
00
3C
20
38
20
3C
00
1F
04
04
04
04
00
00
00
ENDCHAR

STARTCHAR gly5
ENCODING 5
SWIDTH 480 0
DWIDTH 8 0
BBX 8 16 0 -2
BITMAP
00
00
3C
20
38
20
3C
00
0E
11
11
15
0E
02
00
00
ENDCHAR

STARTCHAR gly6
ENCODING 6
SWIDTH 480 0
DWIDTH 8 0
BBX 8 16 0 -2
BITMAP
00
00
18
24
3C
24
24
00
09
0A
0C
0A
09
00
00
00
ENDCHAR

STARTCHAR gly7
ENCODING 7
SWIDTH 480 0
DWIDTH 8 0
BBX 8 16 0 -2
BITMAP
00
00
08
1C
22
22
22
22
22
22
FF
08
00
00
00
00
ENDCHAR

STARTCHAR gly8
ENCODING 8
SWIDTH 480 0
DWIDTH 8 0
BBX 8 16 0 -2
BITMAP
00
00
38
24
38
24
38
00
07
08
06
01
0E
00
00
00
ENDCHAR

STARTCHAR gly9
ENCODING 9
SWIDTH 480 0
DWIDTH 8 0
BBX 8 16 0 -2
BITMAP
00
00
24
24
3C
24
24
00
1F
04
04
04
04
00
00
00
ENDCHAR

STARTCHAR gly10
ENCODING 10
SWIDTH 480 0
DWIDTH 8 0
BBX 8 16 0 -2
BITMAP
00
00
20
20
20
20
3C
00
0F
08
0E
08
08
00
00
00
ENDCHAR

STARTCHAR gly11
ENCODING 11
SWIDTH 480 0
DWIDTH 8 0
BBX 8 16 0 -2
BITMAP
00
00
22
22
14
14
08
00
1F
04
04
04
04
00
00
00
ENDCHAR

STARTCHAR gly12
ENCODING 12
SWIDTH 480 0
DWIDTH 8 0
BBX 8 16 0 -2
BITMAP
00
00
3C
20
38
20
20
00
0F
08
0E
08
08
00
00
00
ENDCHAR

STARTCHAR gly13
ENCODING 13
SWIDTH 480 0
DWIDTH 8 0
BBX 8 16 0 -2
BITMAP
00
00
1C
20
20
20
1C
00
0E
09
0E
0A
09
00
00
00
ENDCHAR

STARTCHAR gly14
ENCODING 14
SWIDTH 480 0
DWIDTH 8 0
BBX 8 16 0 -2
BITMAP
00
00
1C
20
18
04
38
00
06
09
09
09
06
00
00
00
ENDCHAR

STARTCHAR gly15
ENCODING 15
SWIDTH 480 0
DWIDTH 8 0
BBX 8 16 0 -2
BITMAP
00
00
1C
20
18
04
38
00
07
02
02
02
07
00
00
00
ENDCHAR

STARTCHAR gly16
ENCODING 16
SWIDTH 480 0
DWIDTH 8 0
BBX 8 16 0 -2
BITMAP
00
00
38
24
24
24
38
00
08
08
08
08
0F
00
00
00
ENDCHAR

STARTCHAR gly17
ENCODING 17
SWIDTH 480 0
DWIDTH 8 0
BBX 8 16 0 -2
BITMAP
00
00
38
24
24
24
38
00
02
06
02
02
07
00
00
00
ENDCHAR

STARTCHAR gly18
ENCODING 18
SWIDTH 480 0
DWIDTH 8 0
BBX 8 16 0 -2
BITMAP
00
00
38
24
24
24
38
00
06
09
02
04
0F
00
00
00
ENDCHAR

STARTCHAR gly19
ENCODING 19
SWIDTH 480 0
DWIDTH 8 0
BBX 8 16 0 -2
BITMAP
00
00
38
24
24
24
38
00
0E
01
06
01
0E
00
00
00
ENDCHAR

STARTCHAR gly20
ENCODING 20
SWIDTH 480 0
DWIDTH 8 0
BBX 8 16 0 -2
BITMAP
00
00
38
24
24
24
38
00
0A
0A
0F
02
02
00
00
00
ENDCHAR

STARTCHAR gly21
ENCODING 21
SWIDTH 480 0
DWIDTH 8 0
BBX 8 16 0 -2
BITMAP
00
00
24
34
2C
24
24
00
09
0A
0C
0A
09
00
00
00
ENDCHAR

STARTCHAR gly22
ENCODING 22
SWIDTH 480 0
DWIDTH 8 0
BBX 8 16 0 -2
BITMAP
00
00
1C
20
18
04
38
00
11
0A
04
04
04
00
00
00
ENDCHAR

STARTCHAR gly23
ENCODING 23
SWIDTH 480 0
DWIDTH 8 0
BBX 8 16 0 -2
BITMAP
00
00
3C
20
38
20
3C
00
0E
09
0E
09
0E
00
00
00
ENDCHAR

STARTCHAR gly24
ENCODING 24
SWIDTH 480 0
DWIDTH 8 0
BBX 8 16 0 -2
BITMAP
00
00
1C
20
20
20
1C
00
09
0D
0B
09
09
00
00
00
ENDCHAR

STARTCHAR gly25
ENCODING 25
SWIDTH 480 0
DWIDTH 8 0
BBX 8 16 0 -2
BITMAP
00
00
3C
20
38
20
3C
00
11
1B
15
11
11
00
00
00
ENDCHAR

STARTCHAR gly26
ENCODING 26
SWIDTH 480 0
DWIDTH 8 0
BBX 8 16 0 -2
BITMAP
00
00
1C
20
18
04
38
00
0E
09
0E
09
0E
00
00
00
ENDCHAR

STARTCHAR gly27
ENCODING 27
SWIDTH 480 0
DWIDTH 8 0
BBX 8 16 0 -2
BITMAP
00
00
3C
20
38
20
3C
00
07
08
08
08
07
00
00
00
ENDCHAR

STARTCHAR gly28
ENCODING 28
SWIDTH 480 0
DWIDTH 8 0
BBX 8 16 0 -2
BITMAP
00
00
3C
20
38
20
20
00
07
08
06
01
0E
00
00
00
ENDCHAR

STARTCHAR gly29
ENCODING 29
SWIDTH 480 0
DWIDTH 8 0
BBX 8 16 0 -2
BITMAP
00
00
1C
20
2C
24
1C
00
07
08
06
01
0E
00
00
00
ENDCHAR

STARTCHAR gly30
ENCODING 30
SWIDTH 480 0
DWIDTH 8 0
BBX 8 16 0 -2
BITMAP
00
00
38
24
38
28
24
00
07
08
06
01
0E
00
00
00
ENDCHAR

STARTCHAR gly31
ENCODING 31
SWIDTH 480 0
DWIDTH 8 0
BBX 8 16 0 -2
BITMAP
00
00
24
24
24
24
18
00
07
08
06
01
0E
00
00
00
ENDCHAR

STARTCHAR jisx0201_20
ENCODING 32
SWIDTH 480 0
DWIDTH 8 0
BBX 8 16 0 -2
BITMAP
00
00
00
00
00
00
00
00
00
00
00
00
00
00
00
00
ENDCHAR

STARTCHAR jisx0201_21
ENCODING 33
SWIDTH 480 0
DWIDTH 8 0
BBX 8 16 0 -2
BITMAP
00
00
1C
1C
1C
1C
1C
1C
1C
1C
1C
00
1C
1C
00
00
ENDCHAR

STARTCHAR jisx0201_22
ENCODING 34
SWIDTH 480 0
DWIDTH 8 0
BBX 8 16 0 -2
BITMAP
00
37
37
1B
36
00
00
00
00
00
00
00
00
00
00
00
ENDCHAR

STARTCHAR jisx0201_23
ENCODING 35
SWIDTH 480 0
DWIDTH 8 0
BBX 8 16 0 -2
BITMAP
00
00
1B
1B
1B
7F
36
36
36
36
7F
36
36
36
00
00
ENDCHAR

STARTCHAR jisx0201_24
ENCODING 36
SWIDTH 480 0
DWIDTH 8 0
BBX 8 16 0 -2
BITMAP
00
0C
3F
6B
6B
6C
2C
1E
0B
0D
6D
6D
6D
5F
0C
00
ENDCHAR

STARTCHAR jisx0201_25
ENCODING 37
SWIDTH 480 0
DWIDTH 8 0
BBX 8 16 0 -2
BITMAP
00
00
31
5B
5B
56
56
2C
0B
15
15
35
35
63
00
00
ENDCHAR

STARTCHAR jisx0201_26
ENCODING 38
SWIDTH 480 0
DWIDTH 8 0
BBX 8 16 0 -2
BITMAP
00
00
1C
36
36
36
1C
18
2B
6D
65
63
33
1D
00
00
ENDCHAR

STARTCHAR jisx0201_27
ENCODING 39
SWIDTH 480 0
DWIDTH 8 0
BBX 8 16 0 -2
BITMAP
00
1C
1C
0C
18
00
00
00
00
00
00
00
00
00
00
00
ENDCHAR

STARTCHAR jisx0201_28
ENCODING 40
SWIDTH 480 0
DWIDTH 8 0
BBX 8 16 0 -2
BITMAP
00
03
06
0C
0C
18
18
18
18
18
18
0C
0C
06
03
00
ENDCHAR

STARTCHAR jisx0201_29
ENCODING 41
SWIDTH 480 0
DWIDTH 8 0
BBX 8 16 0 -2
BITMAP
00
30
18
0C
0C
06
06
06
06
06
06
0C
0C
18
30
00
ENDCHAR

STARTCHAR jisx0201_2A
ENCODING 42
SWIDTH 480 0
DWIDTH 8 0
BBX 8 16 0 -2
BITMAP
00
00
00
00
0C
6D
2B
1E
1E
2B
6D
0C
00
00
00
00
ENDCHAR

STARTCHAR jisx0201_2B
ENCODING 43
SWIDTH 480 0
DWIDTH 8 0
BBX 8 16 0 -2
BITMAP
00
00
00
00
0C
0C
0C
7F
0C
0C
0C
00
00
00
00
00
ENDCHAR

STARTCHAR jisx0201_2C
ENCODING 44
SWIDTH 480 0
DWIDTH 8 0
BBX 8 16 0 -2
BITMAP
00
00
00
00
00
00
00
00
00
00
00
1C
1C
0C
18
00
ENDCHAR

STARTCHAR jisx0201_2D
ENCODING 45
SWIDTH 480 0
DWIDTH 8 0
BBX 8 16 0 -2
BITMAP
00
00
00
00
00
00
00
7F
00
00
00
00
00
00
00
00
ENDCHAR

STARTCHAR jisx0201_2E
ENCODING 46
SWIDTH 480 0
DWIDTH 8 0
BBX 8 16 0 -2
BITMAP
00
00
00
00
00
00
00
00
00
00
00
00
1C
1C
00
00
ENDCHAR

STARTCHAR jisx0201_2F
ENCODING 47
SWIDTH 480 0
DWIDTH 8 0
BBX 8 16 0 -2
BITMAP
00
01
01
03
03
06
06
0C
0C
18
18
30
30
60
60
00
ENDCHAR

STARTCHAR jisx0201_30
ENCODING 48
SWIDTH 480 0
DWIDTH 8 0
BBX 8 16 0 -2
BITMAP
00
00
1E
33
33
33
33
33
33
33
33
33
33
1E
00
00
ENDCHAR

STARTCHAR jisx0201_31
ENCODING 49
SWIDTH 480 0
DWIDTH 8 0
BBX 8 16 0 -2
BITMAP
00
00
0C
1C
2C
0C
0C
0C
0C
0C
0C
0C
0C
3F
00
00
ENDCHAR

STARTCHAR jisx0201_32
ENCODING 50
SWIDTH 480 0
DWIDTH 8 0
BBX 8 16 0 -2
BITMAP
00
00
1E
33
33
33
03
06
0C
18
18
33
33
3F
00
00
ENDCHAR

STARTCHAR jisx0201_33
ENCODING 51
SWIDTH 480 0
DWIDTH 8 0
BBX 8 16 0 -2
BITMAP
00
00
1E
33
33
03
03
1E
03
03
33
33
33
1E
00
00
ENDCHAR

STARTCHAR jisx0201_34
ENCODING 52
SWIDTH 480 0
DWIDTH 8 0
BBX 8 16 0 -2
BITMAP
00
00
0E
0E
16
16
36
36
66
66
7F
06
06
0F
00
00
ENDCHAR

STARTCHAR jisx0201_35
ENCODING 53
SWIDTH 480 0
DWIDTH 8 0
BBX 8 16 0 -2
BITMAP
00
00
3F
30
30
30
3E
33
33
03
03
33
33
1E
00
00
ENDCHAR

STARTCHAR jisx0201_36
ENCODING 54
SWIDTH 480 0
DWIDTH 8 0
BBX 8 16 0 -2
BITMAP
00
00
1E
33
33
30
3E
33
33
33
33
33
33
1E
00
00
ENDCHAR

STARTCHAR jisx0201_37
ENCODING 55
SWIDTH 480 0
DWIDTH 8 0
BBX 8 16 0 -2
BITMAP
00
00
3F
33
33
06
06
06
0C
0C
0C
0C
0C
0C
00
00
ENDCHAR

STARTCHAR jisx0201_38
ENCODING 56
SWIDTH 480 0
DWIDTH 8 0
BBX 8 16 0 -2
BITMAP
00
00
1E
33
33
33
33
1E
33
33
33
33
33
1E
00
00
ENDCHAR

STARTCHAR jisx0201_39
ENCODING 57
SWIDTH 480 0
DWIDTH 8 0
BBX 8 16 0 -2
BITMAP
00
00
1E
33
33
33
33
33
33
1F
03
33
33
1E
00
00
ENDCHAR

STARTCHAR jisx0201_3A
ENCODING 58
SWIDTH 480 0
DWIDTH 8 0
BBX 8 16 0 -2
BITMAP
00
00
00
00
00
1C
1C
00
00
00
00
1C
1C
00
00
00
ENDCHAR

STARTCHAR jisx0201_3B
ENCODING 59
SWIDTH 480 0
DWIDTH 8 0
BBX 8 16 0 -2
BITMAP
00
00
00
00
00
1C
1C
00
00
00
00
1C
1C
0C
18
00
ENDCHAR

STARTCHAR jisx0201_3C
ENCODING 60
SWIDTH 480 0
DWIDTH 8 0
BBX 8 16 0 -2
BITMAP
00
00
00
03
06
0C
18
30
18
0C
06
03
00
00
00
00
ENDCHAR

STARTCHAR jisx0201_3D
ENCODING 61
SWIDTH 480 0
DWIDTH 8 0
BBX 8 16 0 -2
BITMAP
00
00
00
00
00
7F
00
00
00
7F
00
00
00
00
00
00
ENDCHAR

STARTCHAR jisx0201_3E
ENCODING 62
SWIDTH 480 0
DWIDTH 8 0
BBX 8 16 0 -2
BITMAP
00
00
00
30
18
0C
06
03
06
0C
18
30
00
00
00
00
ENDCHAR

STARTCHAR jisx0201_3F
ENCODING 63
SWIDTH 480 0
DWIDTH 8 0
BBX 8 16 0 -2
BITMAP
00
00
3E
63
63
63
06
0C
18
18
18
00
1C
1C
00
00
ENDCHAR

STARTCHAR jisx0201_40
ENCODING 64
SWIDTH 480 0
DWIDTH 8 0
BBX 8 16 0 -2
BITMAP
00
00
1E
33
61
6D
55
55
55
55
6F
60
33
1E
00
00
ENDCHAR

STARTCHAR jisx0201_41
ENCODING 65
SWIDTH 480 0
DWIDTH 8 0
BBX 8 16 0 -2
BITMAP
00
00
0C
0C
0C
16
16
16
33
33
3F
33
33
77
00
00
ENDCHAR

STARTCHAR jisx0201_42
ENCODING 66
SWIDTH 480 0
DWIDTH 8 0
BBX 8 16 0 -2
BITMAP
00
00
7E
33
33
33
33
3E
33
33
33
33
33
7E
00
00
ENDCHAR

STARTCHAR jisx0201_43
ENCODING 67
SWIDTH 480 0
DWIDTH 8 0
BBX 8 16 0 -2
BITMAP
00
00
1B
37
63
63
60
60
60
60
63
63
36
1C
00
00
ENDCHAR

STARTCHAR jisx0201_44
ENCODING 68
SWIDTH 480 0
DWIDTH 8 0
BBX 8 16 0 -2
BITMAP
00
00
7C
36
33
33
33
33
33
33
33
33
36
7C
00
00
ENDCHAR

STARTCHAR jisx0201_45
ENCODING 69
SWIDTH 480 0
DWIDTH 8 0
BBX 8 16 0 -2
BITMAP
00
00
7F
33
33
30
36
3E
36
30
30
33
33
7F
00
00
ENDCHAR

STARTCHAR jisx0201_46
ENCODING 70
SWIDTH 480 0
DWIDTH 8 0
BBX 8 16 0 -2
BITMAP
00
00
7F
33
33
30
36
3E
36
30
30
30
30
78
00
00
ENDCHAR

STARTCHAR jisx0201_47
ENCODING 71
SWIDTH 480 0
DWIDTH 8 0
BBX 8 16 0 -2
BITMAP
00
00
1B
37
63
63
60
60
6F
63
63
63
37
1B
00
00
ENDCHAR

STARTCHAR jisx0201_48
ENCODING 72
SWIDTH 480 0
DWIDTH 8 0
BBX 8 16 0 -2
BITMAP
00
00
77
33
33
33
33
3F
33
33
33
33
33
77
00
00
ENDCHAR

STARTCHAR jisx0201_49
ENCODING 73
SWIDTH 480 0
DWIDTH 8 0
BBX 8 16 0 -2
BITMAP
00
00
3F
0C
0C
0C
0C
0C
0C
0C
0C
0C
0C
3F
00
00
ENDCHAR

STARTCHAR jisx0201_4A
ENCODING 74
SWIDTH 480 0
DWIDTH 8 0
BBX 8 16 0 -2
BITMAP
00
00
0F
06
06
06
06
06
06
06
06
66
66
3C
00
00
ENDCHAR

STARTCHAR jisx0201_4B
ENCODING 75
SWIDTH 480 0
DWIDTH 8 0
BBX 8 16 0 -2
BITMAP
00
00
77
33
36
36
2C
3C
2C
36
36
33
33
77
00
00
ENDCHAR

STARTCHAR jisx0201_4C
ENCODING 76
SWIDTH 480 0
DWIDTH 8 0
BBX 8 16 0 -2
BITMAP
00
00
78
30
30
30
30
30
30
30
30
33
33
7F
00
00
ENDCHAR

STARTCHAR jisx0201_4D
ENCODING 77
SWIDTH 480 0
DWIDTH 8 0
BBX 8 16 0 -2
BITMAP
00
00
63
63
77
77
5B
5B
63
63
63
63
63
77
00
00
ENDCHAR

STARTCHAR jisx0201_4E
ENCODING 78
SWIDTH 480 0
DWIDTH 8 0
BBX 8 16 0 -2
BITMAP
00
00
77
33
3B
3B
3B
2B
2B
37
37
37
33
7B
00
00
ENDCHAR

STARTCHAR jisx0201_4F
ENCODING 79
SWIDTH 480 0
DWIDTH 8 0
BBX 8 16 0 -2
BITMAP
00
00
1C
36
63
63
63
63
63
63
63
63
36
1C
00
00
ENDCHAR

STARTCHAR jisx0201_50
ENCODING 80
SWIDTH 480 0
DWIDTH 8 0
BBX 8 16 0 -2
BITMAP
00
00
7E
33
33
33
33
33
3E
30
30
30
30
78
00
00
ENDCHAR

STARTCHAR jisx0201_51
ENCODING 81
SWIDTH 480 0
DWIDTH 8 0
BBX 8 16 0 -2
BITMAP
00
00
1C
36
63
63
63
63
63
63
63
5B
36
1B
00
00
ENDCHAR

STARTCHAR jisx0201_52
ENCODING 82
SWIDTH 480 0
DWIDTH 8 0
BBX 8 16 0 -2
BITMAP
00
00
7E
33
33
33
33
3E
33
33
33
33
33
7B
00
00
ENDCHAR

STARTCHAR jisx0201_53
ENCODING 83
SWIDTH 480 0
DWIDTH 8 0
BBX 8 16 0 -2
BITMAP
00
00
1B
37
63
63
30
1C
06
03
63
63
76
5C
00
00
ENDCHAR

STARTCHAR jisx0201_54
ENCODING 84
SWIDTH 480 0
DWIDTH 8 0
BBX 8 16 0 -2
BITMAP
00
00
7F
6D
6D
0C
0C
0C
0C
0C
0C
0C
0C
1E
00
00
ENDCHAR

STARTCHAR jisx0201_55
ENCODING 85
SWIDTH 480 0
DWIDTH 8 0
BBX 8 16 0 -2
BITMAP
00
00
77
33
33
33
33
33
33
33
33
33
33
1E
00
00
ENDCHAR

STARTCHAR jisx0201_56
ENCODING 86
SWIDTH 480 0
DWIDTH 8 0
BBX 8 16 0 -2
BITMAP
00
00
77
33
33
33
33
16
16
16
16
0C
0C
0C
00
00
ENDCHAR

STARTCHAR jisx0201_57
ENCODING 87
SWIDTH 480 0
DWIDTH 8 0
BBX 8 16 0 -2
BITMAP
00
00
77
63
63
63
63
5B
5B
5B
36
36
36
36
00
00
ENDCHAR

STARTCHAR jisx0201_58
ENCODING 88
SWIDTH 480 0
DWIDTH 8 0
BBX 8 16 0 -2
BITMAP
00
00
77
33
33
16
16
0C
0C
16
16
33
33
77
00
00
ENDCHAR

STARTCHAR jisx0201_59
ENCODING 89
SWIDTH 480 0
DWIDTH 8 0
BBX 8 16 0 -2
BITMAP
00
00
77
33
33
33
16
16
16
0C
0C
0C
0C
1E
00
00
ENDCHAR

STARTCHAR jisx0201_5A
ENCODING 90
SWIDTH 480 0
DWIDTH 8 0
BBX 8 16 0 -2
BITMAP
00
00
3F
33
36
06
0C
0C
18
18
30
33
63
7F
00
00
ENDCHAR

STARTCHAR jisx0201_5B
ENCODING 91
SWIDTH 480 0
DWIDTH 8 0
BBX 8 16 0 -2
BITMAP
00
0F
0C
0C
0C
0C
0C
0C
0C
0C
0C
0C
0C
0C
0F
00
ENDCHAR

STARTCHAR jisx0201_5C
ENCODING 92
SWIDTH 480 0
DWIDTH 8 0
BBX 8 16 0 -2
BITMAP
00
00
77
33
33
33
16
16
7F
0C
7F
0C
0C
1E
00
00
ENDCHAR

STARTCHAR jisx0201_5D
ENCODING 93
SWIDTH 480 0
DWIDTH 8 0
BBX 8 16 0 -2
BITMAP
00
3C
0C
0C
0C
0C
0C
0C
0C
0C
0C
0C
0C
0C
3C
00
ENDCHAR

STARTCHAR jisx0201_5E
ENCODING 94
SWIDTH 480 0
DWIDTH 8 0
BBX 8 16 0 -2
BITMAP
00
1C
36
00
00
00
00
00
00
00
00
00
00
00
00
00
ENDCHAR

STARTCHAR jisx0201_5F
ENCODING 95
SWIDTH 480 0
DWIDTH 8 0
BBX 8 16 0 -2
BITMAP
00
00
00
00
00
00
00
00
00
00
00
00
00
7F
00
00
ENDCHAR

STARTCHAR jisx0201_60
ENCODING 96
SWIDTH 480 0
DWIDTH 8 0
BBX 8 16 0 -2
BITMAP
00
06
0C
0E
0E
00
00
00
00
00
00
00
00
00
00
00
ENDCHAR

STARTCHAR jisx0201_61
ENCODING 97
SWIDTH 480 0
DWIDTH 8 0
BBX 8 16 0 -2
BITMAP
00
00
00
00
00
00
1E
33
03
1F
33
33
33
1F
00
00
ENDCHAR

STARTCHAR jisx0201_62
ENCODING 98
SWIDTH 480 0
DWIDTH 8 0
BBX 8 16 0 -2
BITMAP
00
00
70
30
30
30
3E
33
33
33
33
33
33
7E
00
00
ENDCHAR

STARTCHAR jisx0201_63
ENCODING 99
SWIDTH 480 0
DWIDTH 8 0
BBX 8 16 0 -2
BITMAP
00
00
00
00
00
00
1F
33
30
30
30
33
33
1E
00
00
ENDCHAR

STARTCHAR jisx0201_64
ENCODING 100
SWIDTH 480 0
DWIDTH 8 0
BBX 8 16 0 -2
BITMAP
00
00
07
03
03
03
1F
33
33
33
33
33
33
1F
00
00
ENDCHAR

STARTCHAR jisx0201_65
ENCODING 101
SWIDTH 480 0
DWIDTH 8 0
BBX 8 16 0 -2
BITMAP
00
00
00
00
00
00
1E
33
33
3F
30
33
33
1E
00
00
ENDCHAR

STARTCHAR jisx0201_66
ENCODING 102
SWIDTH 480 0
DWIDTH 8 0
BBX 8 16 0 -2
BITMAP
00
00
07
0C
0C
0C
3F
0C
0C
0C
0C
0C
0C
1E
00
00
ENDCHAR

STARTCHAR jisx0201_67
ENCODING 103
SWIDTH 480 0
DWIDTH 8 0
BBX 8 16 0 -2
BITMAP
00
00
00
00
00
00
1B
36
36
36
1C
30
3E
63
3E
00
ENDCHAR

STARTCHAR jisx0201_68
ENCODING 104
SWIDTH 480 0
DWIDTH 8 0
BBX 8 16 0 -2
BITMAP
00
00
70
30
30
30
2E
3B
33
33
33
33
33
77
00
00
ENDCHAR

STARTCHAR jisx0201_69
ENCODING 105
SWIDTH 480 0
DWIDTH 8 0
BBX 8 16 0 -2
BITMAP
00
00
0C
0C
00
00
1C
0C
0C
0C
0C
0C
0C
1E
00
00
ENDCHAR

STARTCHAR jisx0201_6A
ENCODING 106
SWIDTH 480 0
DWIDTH 8 0
BBX 8 16 0 -2
BITMAP
00
00
0C
0C
00
00
1C
0C
0C
0C
0C
0C
0C
0C
38
00
ENDCHAR

STARTCHAR jisx0201_6B
ENCODING 107
SWIDTH 480 0
DWIDTH 8 0
BBX 8 16 0 -2
BITMAP
00
00
70
30
30
30
37
36
2C
3C
36
36
36
77
00
00
ENDCHAR

STARTCHAR jisx0201_6C
ENCODING 108
SWIDTH 480 0
DWIDTH 8 0
BBX 8 16 0 -2
BITMAP
00
00
1C
0C
0C
0C
0C
0C
0C
0C
0C
0C
0C
1E
00
00
ENDCHAR

STARTCHAR jisx0201_6D
ENCODING 109
SWIDTH 480 0
DWIDTH 8 0
BBX 8 16 0 -2
BITMAP
00
00
00
00
00
00
77
6D
6D
6D
6D
6D
6D
6D
00
00
ENDCHAR

STARTCHAR jisx0201_6E
ENCODING 110
SWIDTH 480 0
DWIDTH 8 0
BBX 8 16 0 -2
BITMAP
00
00
00
00
00
00
6E
3B
33
33
33
33
33
7B
00
00
ENDCHAR

STARTCHAR jisx0201_6F
ENCODING 111
SWIDTH 480 0
DWIDTH 8 0
BBX 8 16 0 -2
BITMAP
00
00
00
00
00
00
1E
33
33
33
33
33
33
1E
00
00
ENDCHAR

STARTCHAR jisx0201_70
ENCODING 112
SWIDTH 480 0
DWIDTH 8 0
BBX 8 16 0 -2
BITMAP
00
00
00
00
00
00
7E
33
33
33
33
33
3E
30
78
00
ENDCHAR

STARTCHAR jisx0201_71
ENCODING 113
SWIDTH 480 0
DWIDTH 8 0
BBX 8 16 0 -2
BITMAP
00
00
00
00
00
00
1F
33
33
33
33
33
1F
03
07
00
ENDCHAR

STARTCHAR jisx0201_72
ENCODING 114
SWIDTH 480 0
DWIDTH 8 0
BBX 8 16 0 -2
BITMAP
00
00
00
00
00
00
37
1C
18
18
18
18
18
3C
00
00
ENDCHAR

STARTCHAR jisx0201_73
ENCODING 115
SWIDTH 480 0
DWIDTH 8 0
BBX 8 16 0 -2
BITMAP
00
00
00
00
00
00
1F
33
30
1E
03
33
3B
2E
00
00
ENDCHAR

STARTCHAR jisx0201_74
ENCODING 116
SWIDTH 480 0
DWIDTH 8 0
BBX 8 16 0 -2
BITMAP
00
00
0C
0C
0C
0C
3F
0C
0C
0C
0C
0C
0C
07
00
00
ENDCHAR

STARTCHAR jisx0201_75
ENCODING 117
SWIDTH 480 0
DWIDTH 8 0
BBX 8 16 0 -2
BITMAP
00
00
00
00
00
00
77
33
33
33
33
33
37
1B
00
00
ENDCHAR

STARTCHAR jisx0201_76
ENCODING 118
SWIDTH 480 0
DWIDTH 8 0
BBX 8 16 0 -2
BITMAP
00
00
00
00
00
00
77
33
33
33
16
16
0C
0C
00
00
ENDCHAR

STARTCHAR jisx0201_77
ENCODING 119
SWIDTH 480 0
DWIDTH 8 0
BBX 8 16 0 -2
BITMAP
00
00
00
00
00
00
77
63
63
5B
5B
36
36
36
00
00
ENDCHAR

STARTCHAR jisx0201_78
ENCODING 120
SWIDTH 480 0
DWIDTH 8 0
BBX 8 16 0 -2
BITMAP
00
00
00
00
00
00
77
33
16
0C
0C
16
33
77
00
00
ENDCHAR

STARTCHAR jisx0201_79
ENCODING 121
SWIDTH 480 0
DWIDTH 8 0
BBX 8 16 0 -2
BITMAP
00
00
00
00
00
00
77
33
33
33
16
16
0C
0C
78
00
ENDCHAR

STARTCHAR jisx0201_7A
ENCODING 122
SWIDTH 480 0
DWIDTH 8 0
BBX 8 16 0 -2
BITMAP
00
00
00
00
00
00
3F
33
06
0C
0C
1B
33
3F
00
00
ENDCHAR

STARTCHAR jisx0201_7B
ENCODING 123
SWIDTH 480 0
DWIDTH 8 0
BBX 8 16 0 -2
BITMAP
00
03
06
06
06
06
06
1C
06
06
06
06
06
06
03
00
ENDCHAR

STARTCHAR jisx0201_7C
ENCODING 124
SWIDTH 480 0
DWIDTH 8 0
BBX 8 16 0 -2
BITMAP
00
0C
0C
0C
0C
0C
0C
0C
0C
0C
0C
0C
0C
0C
0C
00
ENDCHAR

STARTCHAR jisx0201_7D
ENCODING 125
SWIDTH 480 0
DWIDTH 8 0
BBX 8 16 0 -2
BITMAP
00
30
18
18
18
18
18
0E
18
18
18
18
18
18
30
00
ENDCHAR

STARTCHAR jisx0201_7E
ENCODING 126
SWIDTH 480 0
DWIDTH 8 0
BBX 8 16 0 -2
BITMAP
00
00
00
00
00
00
00
39
6F
00
00
00
00
00
00
00
ENDCHAR

STARTCHAR gly127
ENCODING 127
SWIDTH 480 0
DWIDTH 8 0
BBX 8 16 0 -2
BITMAP
2A
55
2A
55
2A
55
2A
55
2A
55
2A
55
2A
55
2A
55
ENDCHAR

STARTCHAR gly128
ENCODING 128
SWIDTH 480 0
DWIDTH 8 0
BBX 8 16 0 -2
BITMAP
00
00
18
24
18
24
18
00
06
09
09
09
06
00
00
00
ENDCHAR

STARTCHAR gly129
ENCODING 129
SWIDTH 480 0
DWIDTH 8 0
BBX 8 16 0 -2
BITMAP
00
00
18
24
18
24
18
00
02
06
02
02
07
00
00
00
ENDCHAR

STARTCHAR gly130
ENCODING 130
SWIDTH 480 0
DWIDTH 8 0
BBX 8 16 0 -2
BITMAP
00
00
18
24
18
24
18
00
06
09
02
04
0F
00
00
00
ENDCHAR

STARTCHAR gly131
ENCODING 131
SWIDTH 480 0
DWIDTH 8 0
BBX 8 16 0 -2
BITMAP
00
00
18
24
18
24
18
00
0E
01
06
01
0E
00
00
00
ENDCHAR

STARTCHAR gly132
ENCODING 132
SWIDTH 480 0
DWIDTH 8 0
BBX 8 16 0 -2
BITMAP
00
00
18
24
18
24
18
00
0A
0A
0F
02
02
00
00
00
ENDCHAR

STARTCHAR gly133
ENCODING 133
SWIDTH 480 0
DWIDTH 8 0
BBX 8 16 0 -2
BITMAP
00
00
18
24
18
24
18
00
0F
08
0E
01
0E
00
00
00
ENDCHAR

STARTCHAR gly134
ENCODING 134
SWIDTH 480 0
DWIDTH 8 0
BBX 8 16 0 -2
BITMAP
00
00
18
24
18
24
18
00
06
08
0E
09
06
00
00
00
ENDCHAR

STARTCHAR gly135
ENCODING 135
SWIDTH 480 0
DWIDTH 8 0
BBX 8 16 0 -2
BITMAP
00
00
18
24
18
24
18
00
0F
01
02
04
08
00
00
00
ENDCHAR

STARTCHAR gly136
ENCODING 136
SWIDTH 480 0
DWIDTH 8 0
BBX 8 16 0 -2
BITMAP
00
00
18
24
18
24
18
00
06
09
06
09
06
00
00
00
ENDCHAR

STARTCHAR gly137
ENCODING 137
SWIDTH 480 0
DWIDTH 8 0
BBX 8 16 0 -2
BITMAP
00
00
18
24
18
24
18
00
06
09
07
01
06
00
00
00
ENDCHAR

STARTCHAR gly138
ENCODING 138
SWIDTH 480 0
DWIDTH 8 0
BBX 8 16 0 -2
BITMAP
00
00
18
24
18
24
18
00
06
09
0F
09
09
00
00
00
ENDCHAR

STARTCHAR gly139
ENCODING 139
SWIDTH 480 0
DWIDTH 8 0
BBX 8 16 0 -2
BITMAP
00
00
18
24
18
24
18
00
0E
09
0E
09
0E
00
00
00
ENDCHAR

STARTCHAR gly140
ENCODING 140
SWIDTH 480 0
DWIDTH 8 0
BBX 8 16 0 -2
BITMAP
00
00
18
24
18
24
18
00
07
08
08
08
07
00
00
00
ENDCHAR

STARTCHAR gly141
ENCODING 141
SWIDTH 480 0
DWIDTH 8 0
BBX 8 16 0 -2
BITMAP
00
00
18
24
18
24
18
00
0E
09
09
09
0E
00
00
00
ENDCHAR

STARTCHAR gly142
ENCODING 142
SWIDTH 480 0
DWIDTH 8 0
BBX 8 16 0 -2
BITMAP
00
00
18
24
18
24
18
00
0F
08
0E
08
0F
00
00
00
ENDCHAR

STARTCHAR gly143
ENCODING 143
SWIDTH 480 0
DWIDTH 8 0
BBX 8 16 0 -2
BITMAP
00
00
18
24
18
24
18
00
0F
08
0E
08
08
00
00
00
ENDCHAR

STARTCHAR gly144
ENCODING 144
SWIDTH 480 0
DWIDTH 8 0
BBX 8 16 0 -2
BITMAP
00
00
18
24
1C
04
18
00
06
09
09
09
06
00
00
00
ENDCHAR

STARTCHAR gly145
ENCODING 145
SWIDTH 480 0
DWIDTH 8 0
BBX 8 16 0 -2
BITMAP
00
00
18
24
1C
04
18
00
02
06
02
02
07
00
00
00
ENDCHAR

STARTCHAR gly146
ENCODING 146
SWIDTH 480 0
DWIDTH 8 0
BBX 8 16 0 -2
BITMAP
00
00
18
24
1C
04
18
00
06
09
02
04
0F
00
00
00
ENDCHAR

STARTCHAR gly147
ENCODING 147
SWIDTH 480 0
DWIDTH 8 0
BBX 8 16 0 -2
BITMAP
00
00
18
24
1C
04
18
00
0E
01
06
01
0E
00
00
00
ENDCHAR

STARTCHAR gly148
ENCODING 148
SWIDTH 480 0
DWIDTH 8 0
BBX 8 16 0 -2
BITMAP
00
00
18
24
1C
04
18
00
0A
0A
0F
02
02
00
00
00
ENDCHAR

STARTCHAR gly149
ENCODING 149
SWIDTH 480 0
DWIDTH 8 0
BBX 8 16 0 -2
BITMAP
00
00
18
24
1C
04
18
00
0F
08
0E
01
0E
00
00
00
ENDCHAR

STARTCHAR gly150
ENCODING 150
SWIDTH 480 0
DWIDTH 8 0
BBX 8 16 0 -2
BITMAP
00
00
18
24
1C
04
18
00
06
08
0E
09
06
00
00
00
ENDCHAR

STARTCHAR gly151
ENCODING 151
SWIDTH 480 0
DWIDTH 8 0
BBX 8 16 0 -2
BITMAP
00
00
18
24
1C
04
18
00
0F
01
02
04
08
00
00
00
ENDCHAR

STARTCHAR gly152
ENCODING 152
SWIDTH 480 0
DWIDTH 8 0
BBX 8 16 0 -2
BITMAP
00
00
18
24
1C
04
18
00
06
09
06
09
06
00
00
00
ENDCHAR

STARTCHAR gly153
ENCODING 153
SWIDTH 480 0
DWIDTH 8 0
BBX 8 16 0 -2
BITMAP
00
00
18
24
1C
04
18
00
06
09
07
01
06
00
00
00
ENDCHAR

STARTCHAR gly154
ENCODING 154
SWIDTH 480 0
DWIDTH 8 0
BBX 8 16 0 -2
BITMAP
00
00
18
24
1C
04
18
00
06
09
0F
09
09
00
00
00
ENDCHAR

STARTCHAR gly155
ENCODING 155
SWIDTH 480 0
DWIDTH 8 0
BBX 8 16 0 -2
BITMAP
00
00
18
24
1C
04
18
00
0E
09
0E
09
0E
00
00
00
ENDCHAR

STARTCHAR gly156
ENCODING 156
SWIDTH 480 0
DWIDTH 8 0
BBX 8 16 0 -2
BITMAP
00
00
18
24
1C
04
18
00
07
08
08
08
07
00
00
00
ENDCHAR

STARTCHAR gly157
ENCODING 157
SWIDTH 480 0
DWIDTH 8 0
BBX 8 16 0 -2
BITMAP
00
00
18
24
1C
04
18
00
0E
09
09
09
0E
00
00
00
ENDCHAR

STARTCHAR gly158
ENCODING 158
SWIDTH 480 0
DWIDTH 8 0
BBX 8 16 0 -2
BITMAP
00
00
18
24
1C
04
18
00
0F
08
0E
08
0F
00
00
00
ENDCHAR

STARTCHAR gly159
ENCODING 159
SWIDTH 480 0
DWIDTH 8 0
BBX 8 16 0 -2
BITMAP
00
00
18
24
1C
04
18
00
0F
08
0E
08
08
00
00
00
ENDCHAR

STARTCHAR gly160
ENCODING 160
SWIDTH 480 0
DWIDTH 8 0
BBX 8 16 0 -2
BITMAP
00
00
18
24
3C
24
24
00
06
09
09
09
06
00
00
00
ENDCHAR

STARTCHAR jisx0201_A1
ENCODING 161
SWIDTH 480 0
DWIDTH 8 0
BBX 8 16 0 -2
BITMAP
00
00
00
00
00
00
00
00
00
00
00
38
6C
6C
38
00
ENDCHAR

STARTCHAR jisx0201_A2
ENCODING 162
SWIDTH 480 0
DWIDTH 8 0
BBX 8 16 0 -2
BITMAP
00
07
06
06
06
06
06
06
06
06
06
06
06
06
06
00
ENDCHAR

STARTCHAR jisx0201_A3
ENCODING 163
SWIDTH 480 0
DWIDTH 8 0
BBX 8 16 0 -2
BITMAP
00
18
18
18
18
18
18
18
18
18
18
18
18
18
78
00
ENDCHAR

STARTCHAR jisx0201_A4
ENCODING 164
SWIDTH 480 0
DWIDTH 8 0
BBX 8 16 0 -2
BITMAP
00
00
00
00
00
00
00
00
00
00
00
00
60
38
18
00
ENDCHAR

STARTCHAR jisx0201_A5
ENCODING 165
SWIDTH 480 0
DWIDTH 8 0
BBX 8 16 0 -2
BITMAP
00
00
00
00
00
00
00
1C
1C
00
00
00
00
00
00
00
ENDCHAR

STARTCHAR jisx0201_A6
ENCODING 166
SWIDTH 480 0
DWIDTH 8 0
BBX 8 16 0 -2
BITMAP
00
00
03
3F
03
03
03
3F
03
03
06
06
0C
18
00
00
ENDCHAR

STARTCHAR jisx0201_A7
ENCODING 167
SWIDTH 480 0
DWIDTH 8 0
BBX 8 16 0 -2
BITMAP
00
00
00
00
00
00
7F
03
06
3C
18
18
18
30
60
00
ENDCHAR

STARTCHAR jisx0201_A8
ENCODING 168
SWIDTH 480 0
DWIDTH 8 0
BBX 8 16 0 -2
BITMAP
00
00
00
00
06
03
06
0C
1C
2C
6C
0C
0C
0C
0C
00
ENDCHAR

STARTCHAR jisx0201_A9
ENCODING 169
SWIDTH 480 0
DWIDTH 8 0
BBX 8 16 0 -2
BITMAP
00
00
00
00
1C
0C
2B
3F
33
33
33
03
06
0C
18
00
ENDCHAR

STARTCHAR jisx0201_AA
ENCODING 170
SWIDTH 480 0
DWIDTH 8 0
BBX 8 16 0 -2
BITMAP
00
00
00
00
00
00
3F
0C
0C
0C
0C
0C
7F
00
00
00
ENDCHAR

STARTCHAR jisx0201_AB
ENCODING 171
SWIDTH 480 0
DWIDTH 8 0
BBX 8 16 0 -2
BITMAP
00
00
00
00
0E
06
06
7F
0E
0E
16
36
56
0E
0C
00
ENDCHAR

STARTCHAR jisx0201_AC
ENCODING 172
SWIDTH 480 0
DWIDTH 8 0
BBX 8 16 0 -2
BITMAP
00
00
00
00
70
30
33
3F
73
36
30
18
18
18
18
00
ENDCHAR

STARTCHAR jisx0201_AD
ENCODING 173
SWIDTH 480 0
DWIDTH 8 0
BBX 8 16 0 -2
BITMAP
00
00
00
00
00
06
3F
06
06
06
06
06
7F
00
00
00
ENDCHAR

STARTCHAR jisx0201_AE
ENCODING 174
SWIDTH 480 0
DWIDTH 8 0
BBX 8 16 0 -2
BITMAP
00
00
00
00
00
06
3F
06
06
3E
06
06
06
3F
00
00
ENDCHAR

STARTCHAR jisx0201_AF
ENCODING 175
SWIDTH 480 0
DWIDTH 8 0
BBX 8 16 0 -2
BITMAP
00
00
00
00
00
00
17
5B
5B
63
06
06
0C
18
30
00
ENDCHAR

STARTCHAR jisx0201_B0
ENCODING 176
SWIDTH 480 0
DWIDTH 8 0
BBX 8 16 0 -2
BITMAP
00
00
00
00
00
00
63
3F
00
00
00
00
00
00
00
00
ENDCHAR

STARTCHAR jisx0201_B1
ENCODING 177
SWIDTH 480 0
DWIDTH 8 0
BBX 8 16 0 -2
BITMAP
00
00
03
7F
03
06
3C
18
18
18
18
18
30
60
00
00
ENDCHAR

STARTCHAR jisx0201_B2
ENCODING 178
SWIDTH 480 0
DWIDTH 8 0
BBX 8 16 0 -2
BITMAP
00
00
06
03
06
0C
0C
1C
2C
6C
0C
0C
0C
0C
00
00
ENDCHAR

STARTCHAR jisx0201_B3
ENCODING 179
SWIDTH 480 0
DWIDTH 8 0
BBX 8 16 0 -2
BITMAP
00
00
38
18
5B
7F
63
63
63
03
06
06
0C
18
00
00
ENDCHAR

STARTCHAR jisx0201_B4
ENCODING 180
SWIDTH 480 0
DWIDTH 8 0
BBX 8 16 0 -2
BITMAP
00
00
00
00
3F
0C
0C
0C
0C
0C
0C
0C
7F
00
00
00
ENDCHAR

STARTCHAR jisx0201_B5
ENCODING 181
SWIDTH 480 0
DWIDTH 8 0
BBX 8 16 0 -2
BITMAP
00
00
07
03
03
7F
07
0B
0B
1B
33
6B
07
06
00
00
ENDCHAR

STARTCHAR jisx0201_B6
ENCODING 182
SWIDTH 480 0
DWIDTH 8 0
BBX 8 16 0 -2
BITMAP
00
00
38
18
1B
7F
1B
1B
1B
33
33
2B
67
66
00
00
ENDCHAR

STARTCHAR jisx0201_B7
ENCODING 183
SWIDTH 480 0
DWIDTH 8 0
BBX 8 16 0 -2
BITMAP
00
00
1C
0C
0F
7C
0C
0F
7E
06
06
06
06
06
00
00
ENDCHAR

STARTCHAR jisx0201_B8
ENCODING 184
SWIDTH 480 0
DWIDTH 8 0
BBX 8 16 0 -2
BITMAP
00
00
38
1B
1F
33
33
63
03
06
06
0C
18
30
00
00
ENDCHAR

STARTCHAR jisx0201_B9
ENCODING 185
SWIDTH 480 0
DWIDTH 8 0
BBX 8 16 0 -2
BITMAP
00
00
38
18
18
3F
36
66
06
06
0C
0C
18
30
00
00
ENDCHAR

STARTCHAR jisx0201_BA
ENCODING 186
SWIDTH 480 0
DWIDTH 8 0
BBX 8 16 0 -2
BITMAP
00
00
00
06
7F
06
06
06
06
06
06
06
7F
00
00
00
ENDCHAR

STARTCHAR jisx0201_BB
ENCODING 187
SWIDTH 480 0
DWIDTH 8 0
BBX 8 16 0 -2
BITMAP
00
00
36
36
36
7F
36
36
36
36
06
06
0C
18
00
00
ENDCHAR

STARTCHAR jisx0201_BC
ENCODING 188
SWIDTH 480 0
DWIDTH 8 0
BBX 8 16 0 -2
BITMAP
00
00
00
30
18
01
61
33
03
06
06
0C
58
30
00
00
ENDCHAR

STARTCHAR jisx0201_BD
ENCODING 189
SWIDTH 480 0
DWIDTH 8 0
BBX 8 16 0 -2
BITMAP
00
00
06
3F
06
06
06
0C
0E
0B
1B
19
31
61
00
00
ENDCHAR

STARTCHAR jisx0201_BE
ENCODING 190
SWIDTH 480 0
DWIDTH 8 0
BBX 8 16 0 -2
BITMAP
00
00
70
30
33
3F
73
33
36
36
30
30
33
1F
00
00
ENDCHAR

STARTCHAR jisx0201_BF
ENCODING 191
SWIDTH 480 0
DWIDTH 8 0
BBX 8 16 0 -2
BITMAP
00
00
00
63
31
31
31
03
03
03
06
06
0C
18
00
00
ENDCHAR

STARTCHAR jisx0201_C0
ENCODING 192
SWIDTH 480 0
DWIDTH 8 0
BBX 8 16 0 -2
BITMAP
00
00
38
1B
1F
33
33
63
1B
0E
06
0B
18
30
00
00
ENDCHAR

STARTCHAR jisx0201_C1
ENCODING 193
SWIDTH 480 0
DWIDTH 8 0
BBX 8 16 0 -2
BITMAP
00
00
07
3C
0C
0C
0C
7F
0C
0C
0C
0C
18
30
00
00
ENDCHAR

STARTCHAR jisx0201_C2
ENCODING 194
SWIDTH 480 0
DWIDTH 8 0
BBX 8 16 0 -2
BITMAP
00
00
00
1B
6D
2D
31
03
03
03
06
06
0C
18
00
00
ENDCHAR

STARTCHAR jisx0201_C3
ENCODING 195
SWIDTH 480 0
DWIDTH 8 0
BBX 8 16 0 -2
BITMAP
00
00
00
3F
00
00
7F
0C
0C
0C
0C
0C
18
30
00
00
ENDCHAR

STARTCHAR jisx0201_C4
ENCODING 196
SWIDTH 480 0
DWIDTH 8 0
BBX 8 16 0 -2
BITMAP
00
00
38
18
18
18
1C
17
1B
18
18
18
18
18
00
00
ENDCHAR

STARTCHAR jisx0201_C5
ENCODING 197
SWIDTH 480 0
DWIDTH 8 0
BBX 8 16 0 -2
BITMAP
00
00
1C
0C
0C
7F
0C
0C
0C
0C
0C
0C
18
30
00
00
ENDCHAR

STARTCHAR jisx0201_C6
ENCODING 198
SWIDTH 480 0
DWIDTH 8 0
BBX 8 16 0 -2
BITMAP
00
00
00
00
3E
00
00
00
00
00
00
00
7F
00
00
00
ENDCHAR

STARTCHAR jisx0201_C7
ENCODING 199
SWIDTH 480 0
DWIDTH 8 0
BBX 8 16 0 -2
BITMAP
00
00
03
3F
03
03
03
1B
0E
06
0B
1B
30
60
00
00
ENDCHAR

STARTCHAR jisx0201_C8
ENCODING 200
SWIDTH 480 0
DWIDTH 8 0
BBX 8 16 0 -2
BITMAP
00
18
0C
03
3F
03
06
0C
1B
2D
6D
0C
0C
0C
00
00
ENDCHAR

STARTCHAR jisx0201_C9
ENCODING 201
SWIDTH 480 0
DWIDTH 8 0
BBX 8 16 0 -2
BITMAP
00
00
00
07
03
03
03
06
06
06
0C
0C
18
30
00
00
ENDCHAR

STARTCHAR jisx0201_CA
ENCODING 202
SWIDTH 480 0
DWIDTH 8 0
BBX 8 16 0 -2
BITMAP
00
00
00
00
36
1B
1B
19
31
31
31
61
61
00
00
00
ENDCHAR

STARTCHAR jisx0201_CB
ENCODING 203
SWIDTH 480 0
DWIDTH 8 0
BBX 8 16 0 -2
BITMAP
00
00
70
30
36
33
36
3C
30
30
30
30
33
1F
00
00
ENDCHAR

STARTCHAR jisx0201_CC
ENCODING 204
SWIDTH 480 0
DWIDTH 8 0
BBX 8 16 0 -2
BITMAP
00
00
00
03
7F
03
03
03
03
06
06
0C
18
30
00
00
ENDCHAR

STARTCHAR jisx0201_CD
ENCODING 205
SWIDTH 480 0
DWIDTH 8 0
BBX 8 16 0 -2
BITMAP
00
00
00
00
18
1C
2C
36
66
63
03
01
01
00
00
00
ENDCHAR

STARTCHAR jisx0201_CE
ENCODING 206
SWIDTH 480 0
DWIDTH 8 0
BBX 8 16 0 -2
BITMAP
00
00
1C
0C
7F
0C
0C
6B
6D
6D
6D
6D
1C
18
00
00
ENDCHAR

STARTCHAR jisx0201_CF
ENCODING 207
SWIDTH 480 0
DWIDTH 8 0
BBX 8 16 0 -2
BITMAP
00
00
00
03
7F
03
03
06
06
2C
18
0C
0C
0C
00
00
ENDCHAR

STARTCHAR jisx0201_D0
ENCODING 208
SWIDTH 480 0
DWIDTH 8 0
BBX 8 16 0 -2
BITMAP
00
00
00
3C
06
00
00
3C
06
00
00
78
0E
03
00
00
ENDCHAR

STARTCHAR jisx0201_D1
ENCODING 209
SWIDTH 480 0
DWIDTH 8 0
BBX 8 16 0 -2
BITMAP
00
00
1C
0C
0C
0C
18
18
1B
1B
31
37
7D
00
00
00
ENDCHAR

STARTCHAR jisx0201_D2
ENCODING 210
SWIDTH 480 0
DWIDTH 8 0
BBX 8 16 0 -2
BITMAP
00
00
00
07
03
03
3B
0E
06
0B
0D
18
30
60
00
00
ENDCHAR

STARTCHAR jisx0201_D3
ENCODING 211
SWIDTH 480 0
DWIDTH 8 0
BBX 8 16 0 -2
BITMAP
00
00
00
7F
18
18
18
7F
18
18
18
18
1B
1F
00
00
ENDCHAR

STARTCHAR jisx0201_D4
ENCODING 212
SWIDTH 480 0
DWIDTH 8 0
BBX 8 16 0 -2
BITMAP
00
00
70
33
3F
73
33
36
30
18
18
18
18
18
00
00
ENDCHAR

STARTCHAR jisx0201_D5
ENCODING 213
SWIDTH 480 0
DWIDTH 8 0
BBX 8 16 0 -2
BITMAP
00
00
00
06
3F
06
06
06
06
06
06
06
7F
00
00
00
ENDCHAR

STARTCHAR jisx0201_D6
ENCODING 214
SWIDTH 480 0
DWIDTH 8 0
BBX 8 16 0 -2
BITMAP
00
00
03
3F
03
03
03
3F
03
03
03
03
3F
00
00
00
ENDCHAR

STARTCHAR jisx0201_D7
ENCODING 215
SWIDTH 480 0
DWIDTH 8 0
BBX 8 16 0 -2
BITMAP
00
00
3F
00
00
03
7F
03
03
03
06
06
0C
18
00
00
ENDCHAR

STARTCHAR jisx0201_D8
ENCODING 216
SWIDTH 480 0
DWIDTH 8 0
BBX 8 16 0 -2
BITMAP
00
00
07
73
33
33
33
33
33
03
06
06
0C
18
00
00
ENDCHAR

STARTCHAR jisx0201_D9
ENCODING 217
SWIDTH 480 0
DWIDTH 8 0
BBX 8 16 0 -2
BITMAP
00
00
1C
6C
2C
2C
2C
2C
2D
2D
2B
2B
6E
6C
00
00
ENDCHAR

STARTCHAR jisx0201_DA
ENCODING 218
SWIDTH 480 0
DWIDTH 8 0
BBX 8 16 0 -2
BITMAP
00
00
00
70
30
30
30
30
31
31
33
36
2C
38
00
00
ENDCHAR

STARTCHAR jisx0201_DB
ENCODING 219
SWIDTH 480 0
DWIDTH 8 0
BBX 8 16 0 -2
BITMAP
00
00
00
33
3F
33
33
33
33
33
33
33
3F
30
00
00
ENDCHAR

STARTCHAR jisx0201_DC
ENCODING 220
SWIDTH 480 0
DWIDTH 8 0
BBX 8 16 0 -2
BITMAP
00
00
00
63
7F
63
63
63
63
03
06
06
0C
18
00
00
ENDCHAR

STARTCHAR jisx0201_DD
ENCODING 221
SWIDTH 480 0
DWIDTH 8 0
BBX 8 16 0 -2
BITMAP
00
00
00
60
33
33
03
03
06
06
0C
0C
58
30
00
00
ENDCHAR

STARTCHAR jisx0201_DE
ENCODING 222
SWIDTH 480 0
DWIDTH 8 0
BBX 8 16 0 -2
BITMAP
00
30
18
60
30
00
00
00
00
00
00
00
00
00
00
00
ENDCHAR

STARTCHAR jisx0201_DF
ENCODING 223
SWIDTH 480 0
DWIDTH 8 0
BBX 8 16 0 -2
BITMAP
00
38
6C
6C
38
00
00
00
00
00
00
00
00
00
00
00
ENDCHAR

STARTCHAR gly224
ENCODING 224
SWIDTH 480 0
DWIDTH 8 0
BBX 8 16 0 -2
BITMAP
00
00
3C
20
38
20
3C
00
06
09
09
09
06
00
00
00
ENDCHAR

STARTCHAR gly225
ENCODING 225
SWIDTH 480 0
DWIDTH 8 0
BBX 8 16 0 -2
BITMAP
00
00
3C
20
38
20
3C
00
02
06
02
02
07
00
00
00
ENDCHAR

STARTCHAR gly226
ENCODING 226
SWIDTH 480 0
DWIDTH 8 0
BBX 8 16 0 -2
BITMAP
00
00
3C
20
38
20
3C
00
06
09
02
04
0F
00
00
00
ENDCHAR

STARTCHAR gly227
ENCODING 227
SWIDTH 480 0
DWIDTH 8 0
BBX 8 16 0 -2
BITMAP
00
00
3C
20
38
20
3C
00
0E
01
06
01
0E
00
00
00
ENDCHAR

STARTCHAR gly228
ENCODING 228
SWIDTH 480 0
DWIDTH 8 0
BBX 8 16 0 -2
BITMAP
00
00
3C
20
38
20
3C
00
0A
0A
0F
02
02
00
00
00
ENDCHAR

STARTCHAR gly229
ENCODING 229
SWIDTH 480 0
DWIDTH 8 0
BBX 8 16 0 -2
BITMAP
00
00
3C
20
38
20
3C
00
0F
08
0E
01
0E
00
00
00
ENDCHAR

STARTCHAR gly230
ENCODING 230
SWIDTH 480 0
DWIDTH 8 0
BBX 8 16 0 -2
BITMAP
00
00
3C
20
38
20
3C
00
06
08
0E
09
06
00
00
00
ENDCHAR

STARTCHAR gly231
ENCODING 231
SWIDTH 480 0
DWIDTH 8 0
BBX 8 16 0 -2
BITMAP
00
00
3C
20
38
20
3C
00
0F
01
02
04
08
00
00
00
ENDCHAR

STARTCHAR gly232
ENCODING 232
SWIDTH 480 0
DWIDTH 8 0
BBX 8 16 0 -2
BITMAP
00
00
3C
20
38
20
3C
00
06
09
06
09
06
00
00
00
ENDCHAR

STARTCHAR gly233
ENCODING 233
SWIDTH 480 0
DWIDTH 8 0
BBX 8 16 0 -2
BITMAP
00
00
3C
20
38
20
3C
00
06
09
07
01
06
00
00
00
ENDCHAR

STARTCHAR gly234
ENCODING 234
SWIDTH 480 0
DWIDTH 8 0
BBX 8 16 0 -2
BITMAP
00
00
3C
20
38
20
3C
00
06
09
0F
09
09
00
00
00
ENDCHAR

STARTCHAR gly235
ENCODING 235
SWIDTH 480 0
DWIDTH 8 0
BBX 8 16 0 -2
BITMAP
00
00
3C
20
38
20
3C
00
0E
09
0E
09
0E
00
00
00
ENDCHAR

STARTCHAR gly236
ENCODING 236
SWIDTH 480 0
DWIDTH 8 0
BBX 8 16 0 -2
BITMAP
00
00
3C
20
38
20
3C
00
07
08
08
08
07
00
00
00
ENDCHAR

STARTCHAR gly237
ENCODING 237
SWIDTH 480 0
DWIDTH 8 0
BBX 8 16 0 -2
BITMAP
00
00
3C
20
38
20
3C
00
0E
09
09
09
0E
00
00
00
ENDCHAR

STARTCHAR gly238
ENCODING 238
SWIDTH 480 0
DWIDTH 8 0
BBX 8 16 0 -2
BITMAP
00
00
3C
20
38
20
3C
00
0F
08
0E
08
0F
00
00
00
ENDCHAR

STARTCHAR gly239
ENCODING 239
SWIDTH 480 0
DWIDTH 8 0
BBX 8 16 0 -2
BITMAP
00
00
3C
20
38
20
3C
00
0F
08
0E
08
08
00
00
00
ENDCHAR

STARTCHAR gly240
ENCODING 240
SWIDTH 480 0
DWIDTH 8 0
BBX 8 16 0 -2
BITMAP
00
00
3C
20
38
20
20
00
06
09
09
09
06
00
00
00
ENDCHAR

STARTCHAR gly241
ENCODING 241
SWIDTH 480 0
DWIDTH 8 0
BBX 8 16 0 -2
BITMAP
00
00
3C
20
38
20
20
00
02
06
02
02
07
00
00
00
ENDCHAR

STARTCHAR gly242
ENCODING 242
SWIDTH 480 0
DWIDTH 8 0
BBX 8 16 0 -2
BITMAP
00
00
3C
20
38
20
20
00
06
09
02
04
0F
00
00
00
ENDCHAR

STARTCHAR gly243
ENCODING 243
SWIDTH 480 0
DWIDTH 8 0
BBX 8 16 0 -2
BITMAP
00
00
3C
20
38
20
20
00
0E
01
06
01
0E
00
00
00
ENDCHAR

STARTCHAR gly244
ENCODING 244
SWIDTH 480 0
DWIDTH 8 0
BBX 8 16 0 -2
BITMAP
00
00
3C
20
38
20
20
00
0A
0A
0F
02
02
00
00
00
ENDCHAR

STARTCHAR gly245
ENCODING 245
SWIDTH 480 0
DWIDTH 8 0
BBX 8 16 0 -2
BITMAP
00
00
3C
20
38
20
20
00
0F
08
0E
01
0E
00
00
00
ENDCHAR

STARTCHAR gly246
ENCODING 246
SWIDTH 480 0
DWIDTH 8 0
BBX 8 16 0 -2
BITMAP
00
00
3C
20
38
20
20
00
06
08
0E
09
06
00
00
00
ENDCHAR

STARTCHAR gly247
ENCODING 247
SWIDTH 480 0
DWIDTH 8 0
BBX 8 16 0 -2
BITMAP
00
00
3C
20
38
20
20
00
0F
01
02
04
08
00
00
00
ENDCHAR

STARTCHAR gly248
ENCODING 248
SWIDTH 480 0
DWIDTH 8 0
BBX 8 16 0 -2
BITMAP
00
00
3C
20
38
20
20
00
06
09
06
09
06
00
00
00
ENDCHAR

STARTCHAR gly249
ENCODING 249
SWIDTH 480 0
DWIDTH 8 0
BBX 8 16 0 -2
BITMAP
00
00
3C
20
38
20
20
00
06
09
07
01
06
00
00
00
ENDCHAR

STARTCHAR gly250
ENCODING 250
SWIDTH 480 0
DWIDTH 8 0
BBX 8 16 0 -2
BITMAP
00
00
3C
20
38
20
20
00
06
09
0F
09
09
00
00
00
ENDCHAR

STARTCHAR gly251
ENCODING 251
SWIDTH 480 0
DWIDTH 8 0
BBX 8 16 0 -2
BITMAP
00
00
3C
20
38
20
20
00
0E
09
0E
09
0E
00
00
00
ENDCHAR

STARTCHAR gly252
ENCODING 252
SWIDTH 480 0
DWIDTH 8 0
BBX 8 16 0 -2
BITMAP
00
00
3C
20
38
20
20
00
07
08
08
08
07
00
00
00
ENDCHAR

STARTCHAR gly253
ENCODING 253
SWIDTH 480 0
DWIDTH 8 0
BBX 8 16 0 -2
BITMAP
00
00
3C
20
38
20
20
00
0E
09
09
09
0E
00
00
00
ENDCHAR

STARTCHAR gly254
ENCODING 254
SWIDTH 480 0
DWIDTH 8 0
BBX 8 16 0 -2
BITMAP
00
00
3C
20
38
20
20
00
0F
08
0E
08
0F
00
00
00
ENDCHAR

STARTCHAR gly255
ENCODING 255
SWIDTH 480 0
DWIDTH 8 0
BBX 8 16 0 -2
BITMAP
00
00
3C
20
38
20
20
00
0F
08
0E
08
08
00
00
00
ENDCHAR
ENDFONT
